<?xml version="1.0" encoding="UTF-8"?>
<svg id="Capa_2" data-name="Capa 2" xmlns="http://www.w3.org/2000/svg" viewBox="0 0 206.06 345.7">
  <defs>
    <style>
      .cls-1 {
        fill: #c49069;
        stroke: #c49069;
      }

      .cls-1, .cls-2, .cls-3, .cls-4, .cls-5, .cls-6, .cls-7, .cls-8, .cls-9, .cls-10, .cls-11, .cls-12 {
        stroke-miterlimit: 10;
      }

      .cls-1, .cls-4, .cls-8 {
        stroke-width: .47px;
      }

      .cls-2 {
        fill: #d14634;
      }

      .cls-2, .cls-3 {
        stroke: #d14634;
      }

      .cls-2, .cls-3, .cls-5, .cls-6, .cls-7, .cls-9, .cls-10 {
        stroke-width: .83px;
      }

      .cls-13 {
        fill: #e5c19e;
      }

      .cls-3, .cls-14 {
        fill: #e26952;
      }

      .cls-15 {
        fill: #dd7292;
      }

      .cls-4 {
        fill: #66a8bf;
      }

      .cls-4, .cls-8 {
        stroke: #66a8bf;
      }

      .cls-5 {
        stroke: #fff;
      }

      .cls-5, .cls-12 {
        fill: none;
      }

      .cls-6 {
        fill: #5b3c2d;
      }

      .cls-6, .cls-7 {
        stroke: #3f281f;
      }

      .cls-7 {
        fill: #3f281f;
      }

      .cls-16, .cls-8 {
        fill: #91c9e2;
      }

      .cls-9 {
        fill: #0c0c0c;
      }

      .cls-9, .cls-10 {
        stroke: #282828;
      }

      .cls-10 {
        fill: #444;
      }

      .cls-11 {
        fill: #2d2825;
        stroke: #1d1d1b;
      }

      .cls-11, .cls-12 {
        stroke-width: .33px;
      }

      .cls-12 {
        stroke: #000;
      }
    </style>
  </defs>
  <g id="Capa_26" data-name="Capa 26">
    <g>
      <g>
        <path class="cls-6" d="m87.1,1.14s-48.64,5.07-38.67,51.79c0,0,4.02,24.5-12.42,19.07,0,0,7.7,9.1,11.37,4.9,0,0-.35,15.4,12.25,18.02,0,0-2.97-2.8-3.85-6.82,0,0,1.92,7.87,12.77,9.27,0,0-1.75-3.5-2.45-5.77,0,0,3.15,7.87,11.2,6.3,0,0-2.1-2.1-2.97-7,0,0,1.4,5.42,6.65,6.65,5.25,1.22.87-.52.87-.52,0,0,20.65,11.02,15.92,18.9,0,0,11.2-11.9,10.32-18.72l1.92,5.42s7-4.72,6.12-8.57c0,0,2.22,1.17.82,3.97,0,0,5.83-1.11,6.42-6.88,0,0,1.75,4.02-.93,6.42,0,0,5.66-.99,8.52-11.08,0,0,1.05,3.5-.47,6.3,0,0,9.8-2.68,10.5-15.05,0,0,2.1,13.18-1.75,18.78,0,0,12.99-4.29,11.63-15.99-.02-.19-.05-.38-.08-.57,0,0-2.33-21.46-1.63-32.55.7-11.08,1.87-52.96-62.06-46.25Z"/>
        <path class="cls-7" d="m65.1,14.45s-18.7,7.61-13.76,35.93c4.94,28.31-9.62,23.77-9.62,23.77,0,0,2.67,3.07,8.01-.67,0,0-3.07,10.82,6.14,18.7,0,0-1.87-4.94-.67-8.82,0,0,2.47,9.32,10.48,11.87,0,0-.7-3.41-.05-5.86,0,0,3.41,6.11,7.96,6.66,0,0-.75-6.01.15-7.21,0,0,4.71,7.96,10.52,7.66,0,0,14.88,8.31,15.33,14.93,0,0,7.81-6.01,7.16-18.83,0,0,4.26,5.91,3.86,7.61,0,0,4.91-2.45,5.06-8.26,0,0,4.06,3.16,3.31,4.16,0,0,3.16-1.15,3.86-6.86,0,0,3.21,3.21,1.95,5.96,0,0,2.04-1.27,6.26-11.82.1-.25,2.1,5.51,1.1,7.51,0,0,8.51-2.75,8.01-18.23,0,0,6.11,13.12,1.4,20.94,0,0,7.13-2.09,8.41-9.79.04-.25.05-.51.03-.76-.23-3.09-1.77-23.87-1.72-24.01.05-.15,0-20.13,0-20.13,0,0-3.56-26.55-22.79-26.75s-60.4,2.3-60.4,2.3Z"/>
      </g>
      <path class="cls-16" d="m78.15,99.01s-1.94,28.34.22,39.24c2.16,10.9,21.98,6.23,21.98,6.23l20.34-4.24s1.9-14.71,1.56-26.74c-.35-12.03-2.08-14.19-2.08-14.19l-8.74-2.94-29.16,2.86-4.12-.21Z"/>
      <g>
        <path class="cls-13" d="m15.6,185.9l-1.09,1.28s-15.79,1.44-14.36,5.59c0,0,.06,3.3,6.37.66,0,0-7.08,8.97-3.52,14.27s8.37,5.28,12.19,2.68,5.22-7.19,5.72-14.89c.18-2.86,1.57-3.78,1.57-3.78l-1.52-1.28-5.35-4.53Z"/>
        <path class="cls-1" d="m20.75,189.89s-2.28.97-2.58,3.45c-.3,2.48,1.68,18.13-10.95,16.3,0,0-1.89.06-3.33-1.03.57.69,3.46,4.53,8.6,2.94,5.68-1.76,8.06-8,8.21-14.89,0,0,0-3.47,1.59-4.95l.4-.69-1.93-1.12Z"/>
        <path class="cls-1" d="m.31,192.88s6.14-.83,6.61-1.63c0,0,6.13,2.97,8.82.13,0,0-3.3,4.57-9.18,1.97l-1.71.5s-3.67,1.67-4.53-.96Z"/>
      </g>
      <g>
        <g>
          <path class="cls-13" d="m86.1,118.27l-29.65,41.35s-13.76,15.03-14.7-6.83l30.29-44.61,1.41,1.01,12.66,9.08Z"/>
          <path class="cls-1" d="m43.41,160.96s3.06,9.08,13.04-1.34l30.29-42.82-8.72-4.26s-5.98,34.45-34.61,48.42Z"/>
        </g>
        <g>
          <path class="cls-8" d="m57.73,129.37s-6.49-7.09.9-9.61c0,0,7.41-5.95,9.2-10.15,0,0-.69-10.64,10.99-10.09l2.65,2.33c2.54-1.19,5.43.75,5.3,3.55l1.61.74,2.12,4.01-.41,5.93c-.27,3.99-2.4,7.63-5.74,9.84h0s-4.32.36-5.17,5.94c-.85,5.58-4.56,8.91-8.43,8.37-3.87-.54-12.4-6.35-13.02-10.86Z"/>
          <path class="cls-8" d="m55.77,132.24c.48.04,13.21,10.59,13.04,10.26s1.35-1.88,1.52-2.26-12.98-10.63-12.98-10.63l-1.58,2.62Z"/>
          <path class="cls-4" d="m65.63,139.84s1.86-.13,1.74-2.4c0-.08-.13-.11-.13-.11l-2.54-2.16s22.27-4.98,24.14-27.81l1.66,2.8-.4,5.97s0,2.65-1.5,5.36c0,0-2.2,3.21-4.51,4.66,0,0-3.58-.15-4.51,4.18-.02.07-.03.15-.04.22-.85,4.56-3.16,10.37-9.22,9.62l-1.5,2.3-3.17-2.62Z"/>
        </g>
      </g>
      <g>
        <path class="cls-13" d="m41.73,152.7s13.31-13.87,14.7,6.83c0,0-26.95,21.15-35.11,33.37l-7.08-5.74s12.05-13.68,18.34-24.18c6.29-10.51,9.16-10.28,9.16-10.28Z"/>
        <path class="cls-1" d="m18.37,192.01l2.77.99s8.42-11.69,27.84-27.64l7.73-6.04-1.19-6.47s-8.12,13.21-37.16,39.17Z"/>
      </g>
      <g>
        <path class="cls-13" d="m189.88,180.81l1.24,1.14s15.85.18,14.76,4.43c0,0-.15,2.91-4.41,1.45,0,0,5.88,8.09,2.76,13.66s-7.93,5.93-11.94,3.64c-4.01-2.29-6.23-6.7-6.88-14.39-.29-3.4-1.18-3.5-1.18-3.5l5.65-6.44Z"/>
        <path class="cls-1" d="m185.16,184.96s2.34.81,2.82,3.26c.48,2.45-.37,18.21,12.1,15.47,0,0,1.89-.07,3.25-1.27-.52.73-3.12,4.77-8.36,3.55-5.79-1.35-8.62-7.4-9.26-14.26,0,0-.25-3.46-1.94-4.83l-.45-.66,1.85-1.26Z"/>
        <path class="cls-1" d="m205.76,186.47s-6.19-.38-6.71-1.15c0,0-5.9,3.41-8.79.77,0,0,3.62,4.32,9.3,1.3l1.74.37s3.78,1.4,4.45-1.28Z"/>
      </g>
      <g>
        <path class="cls-13" d="m114.44,119.04l32.84,38.87s14.91,13.89,14.11-7.97l-33.73-42.07-1.32,1.12-11.9,10.05Z"/>
        <path class="cls-1" d="m160.76,157.79s-1.91,9.38-13.1.28l-32.87-40.25,5.64-3.79s10.19,33.44,40.34,43.76Z"/>
        <g>
          <path class="cls-8" d="m144.4,127.79s5.9-7.58-1.66-9.5c0,0-7.86-5.34-9.98-9.38,0,0-.16-10.67-11.75-9.18l-4.66-1.75c-2.62-.99-5.35,1.17-5,3.95l.66,5.15-1.8,4.16.88,5.88c.59,3.96,2.99,7.42,6.5,9.35h0s4.33.01,5.62,5.51c1.29,5.49,5.25,8.52,9.07,7.67s11.85-7.32,12.12-11.86Z"/>
          <path class="cls-8" d="m145.78,130.56c-.47.08-12.33,11.61-12.18,11.27s-1.49-1.76-1.69-2.13,12.1-11.63,12.1-11.63l1.78,2.49Z"/>
          <path class="cls-4" d="m135.45,140.13s-2.7.53-2-2.2l3.24-3.11s-10.15,1.34-11.25-9.18c0,0-1.1-5.81-6.64-6.34,0,0-6.78-9.18-6.54-14.02l-.53.2.29,1.6-1.8,4.16s.27,11.46,7.55,15.37c0,0,3.71-.53,5.44,5.11,0,0,1.4,8.65,8.75,7.91,0,0,1.64,1.9,1.74,1.97s1.77-1.47,1.77-1.47Z"/>
        </g>
      </g>
      <g>
        <path class="cls-13" d="m161.4,149.84s-14.37-12.77-14.11,7.97c0,0,28.55,18.95,37.65,30.48l6.6-6.28s-13.09-12.68-20.2-22.65c-7.1-9.98-9.94-9.52-9.94-9.52Z"/>
        <path class="cls-1" d="m187.5,186.06l-2.57,2.23s-14.71-14.98-29.31-24.99l-8.22-5.53s-.05-1.88.05-3c.07-.91.5-3.24.5-3.24,0,0,8.24,11.38,39.56,34.53Z"/>
      </g>
      <path class="cls-7" d="m59.89,21.26s11.52-16.33,29.55-18.03l13.32,12.62-42.87,5.41Z"/>
      <path class="cls-14" d="m73.79,156.51s-.52,6.06,4.15,21.46,41.37,10.04,41.37,10.04c0,0,8.48-4.67,3.81-15.92,0,0,6.58-25.1-14.88-18.87-21.46,6.23-34.44,3.29-34.44,3.29Z"/>
      <path class="cls-4" d="m75.18,166.41s-5.21-2.27-1.47-10.28c0,0-1.47,4.14,2.67,5.61,0,0,13.76,3.87,19.5.8,5.74-3.07,17.76-8.28,17.23-17.5,0,0,6.68,9.35,3.87,14.02,0,0,8.28,8.28,8.68-4.67,0,0,2.54,8.95-1.07,11.49-3.61,2.54-9.48,9.75-10.15,9.75s-30.72-2-30.72-2l-8.55-7.21Z"/>
      <path class="cls-2" d="m51.21,259.34c-2.24,2.55-.91,6.57,2.41,7.27,12.93,2.73,38.9,7.1,45.41-.23,8.77-9.87,38.8,8.25,49.82,2.74,2.82-1.41,4.97-2.64,6.61-3.7,2.84-1.82,2.66-6.03-.31-7.63-6.45-3.46-16.24-8.72-16.56-8.87-.47-.22-41.75-12.59-44.98-11.54-3.23,1.04-38.21,16.01-38.18,16.71.01.33-2.05,2.77-4.22,5.25Z"/>
      <g>
        <path class="cls-13" d="m132.31,197.47s8.11,37.01,1.79,64.35c-.58,2.49-1.35,4.24-3.91,4.32l-7.12.24c-2.41.08-3.59-1.42-4.03-3.79l-12.11-61.14,25.37-3.99Z"/>
        <g>
          <path class="cls-13" d="m73.11,196.52s-9.79,37.87-1.65,65.74c.72,2.45,1.64,2.85,4.2,2.92l7.12.2c2.41.07,3.66-.57,4.08-2.95l11.65-62.08-25.4-3.83Z"/>
          <g>
            <g>
              <path class="cls-9" d="m115.66,342.93l-.04.52c-.07,1.01.73,1.86,1.74,1.83l14.63-.31s2.8.06,3.91-2.68c1.11-2.74.64-5.19.64-5.19l-20.06.76s-1.05,5.02-.82,5.07Z"/>
              <path class="cls-10" d="m133.33,313.13l3.41,20.5c.35,5.91-2.39,9.24-6.03,9.24h-15.12s-6.18-5.08,0-11.81c6.18-6.73,10.21-16.23,8.65-24.19-1.56-7.96,9.08,6.26,9.08,6.26Z"/>
              <path class="cls-9" d="m115.95,342.9s-5.84-7.25,1.44-9.25c7.28-2,11.72,1.44,11.72,1.44,0,0,2.6,1.2,4.47.47,1.87-.73,1.34-13.29.73-15.63l2.27,13.26s1.6,9.22-6.04,9.58c-7.65.37-14.59.13-14.59.13Z"/>
              <path class="cls-13" d="m133.94,254.39s2.51,47.77-1.63,64.07c-.89,3.51-8.91,5.76-9.36.56-1.51-17.27-3-24.94-3.2-32.75-.2-7.79-1.21-32.02-1.21-32.02l15.4.14Z"/>
              <path class="cls-10" d="m120.25,328.23c-.29.09,5.56-.55,8.76.65,0,0,4.71-8.01,1.3-10.27-3.41-2.25-6.16-.55-6.46,0s-2.15,9.17-3.61,9.62Z"/>
              <g>
                <path class="cls-9" d="m90.67,341.87l.04.52c.08,1.01-.72,1.86-1.73,1.85l-14.63-.22s-2.8.08-3.92-2.66c-1.13-2.73-.67-5.19-.67-5.19l20.07.63s1.08,5.01.85,5.07Z"/>
                <path class="cls-10" d="m72.81,312.18l-3.28,20.53c-.32,5.91,2.44,9.22,6.09,9.2l15.12-.09s6.15-5.12-.07-11.81c-6.22-6.69-10.31-16.17-8.8-24.14s-9.04,6.32-9.04,6.32Z"/>
                <path class="cls-9" d="m90.34,341.94s5.84-7.25-1.44-9.25c-7.28-2-11.72,1.44-11.72,1.44,0,0-2.6,1.2-4.47.47-1.87-.73-1.34-13.29-.73-15.63l-2.27,13.26s-1.6,9.22,6.04,9.58c7.65.37,14.59.13,14.59.13Z"/>
                <path class="cls-13" d="m71.84,253.45s-2.17,47.78,2.03,64.06c.52,2.02,9.43,5.94,9.37.5-.2-17.34,2.84-24.96,3-32.77s1.01-32.03,1.01-32.03l-15.4.23Z"/>
                <path class="cls-10" d="m86.34,328.23c.29.09-5.56-.55-8.76.65,0,0-4.71-8.01-1.3-10.27,3.41-2.25,6.16-.55,6.46,0s2.15,9.17,3.61,9.62Z"/>
                <path class="cls-5" d="m74.48,321.57s10.45,1.9,10.42,2.04-8.55,5.28-8.55,5.28h0c2.64-1.24,5.28-1.93,10.21-.93l.08.03-11.62-3.01,8.58-4.44"/>
              </g>
              <path class="cls-5" d="m131.65,321.57s-10.45,1.9-10.42,2.04,8.55,5.28,8.55,5.28h0c-2.64-1.24-5.28-1.93-10.21-.93l-.08.03,11.62-3.01-8.58-4.44"/>
            </g>
            <path class="cls-1" d="m68.31,245.41s1.7,23.17,11.38,22.82c2.39-.09,4.48-1.67,5.35-3.9,1.14-2.92,3.7-8.38,5.17-19.91l8.3-44.07-25.64-3.89s-5.65,25.66-4.56,48.95Z"/>
            <path class="cls-1" d="m107.05,201.09l25.1-3.83s8.19,36.07,1.98,65c0,0-9.38,13.08-15.19-1.45,0,0-1.32-7.93-3.83-18.63-2.51-10.7-8.06-41.09-8.06-41.09Z"/>
          </g>
        </g>
      </g>
      <path class="cls-2" d="m74.62,167.01s2.6-2.4,7.41-.4c4.81,2,3.21-1.8,8.41-1.6s10.12,2.2,14.93.5c4.81-1.7,10.55-.2,10.55-.2,0,0,8.28-.3,9.68.1,1.4.4-.5-1.1-.5-1.1l-3.41-.9-16.63.9-14.62.1-11.42.5-3.21.3-1.2,1.8Z"/>
      <g>
        <g>
          <g>
            <path class="cls-13" d="m87.43,83.5s5.57,12.92-3.63,18.84c-1.48.95,18.72,10.04,18.72,10.04l13.76-12.55s-10.53,1.82-3.89-18.61c8.01-24.65-24.95,2.28-24.95,2.28Z"/>
            <path class="cls-8" d="m126.24,152.84c-1.49-2.89-7-39.46-7-39.46,0,0,1.36-14.61,1.4-14.44.04.17-9.6-2.97-9.6-2.97h-.16c1.22,10.44-10.43,11.02-10.43,11.02-13.42-.62-12.39-9.18-12-10.78h-.01l-10.28,2.8s1.28,7.82,1.98,16.74c.7,8.92-3.67,23.8-4.9,29.22-1.22,5.42-2.45,9.62-3.5,13.82-1.05,4.2,4.42,9.83,4.13,9.48,0,0,15.12,4.78,15.03,4.52-.09-.26,22.31-2.45,22.31-2.45,0,0,7.09-2.93,11.12-3.28,4.02-.35,3.4-11.33,1.92-14.22Z"/>
          </g>
          <polygon class="cls-3" points="78.04 98.78 85.04 97.03 84.69 164.92 77.34 164.57 78.04 98.78"/>
          <polygon class="cls-3" points="120.61 98.78 113.38 96.52 113.96 164.92 121.31 164.57 120.61 98.78"/>
        </g>
        <path class="cls-1" d="m88.29,86.48l22.33.07s-8.65,15.59-22.33-.07Z"/>
      </g>
      <g>
        <path class="cls-3" d="m77.88,164.86l44.58-1.52c1.9-.06,3.63,1.09,4.3,2.86,5.34,14.14,28.11,74.64,33.46,91.83.54,1.74-.03,3.64-1.45,4.78-3.06,2.45-9.8,5.34-22.94.91-19.84-6.68-30.3-15.78-58.9-2.2-15.33,7.28-22.95,7.76-26.71,6.63-2.34-.7-3.6-3.23-2.87-5.56,4.05-12.83,22.95-73.3,26.31-94.04.34-2.09,2.11-3.64,4.23-3.71Z"/>
        <path class="cls-2" d="m64.3,265.47c-1.16-.09,16.63-40.87,18.63-72.92l-6.81,68.92s-6.41,4.41-11.82,4.01Z"/>
        <path class="cls-2" d="m56.49,268.68s3.81-47.28,6.21-55.69l-14.42,46.88s-5.01,9.02,8.21,8.82Z"/>
        <path class="cls-2" d="m113.38,255.46s-5.21-38.06-5.41-52.29c0,0,6.01,50.09,14.62,55.69,0,0-5.56-1.95-9.22-3.41Z"/>
        <path class="cls-2" d="m152.45,265.81s-7.48,1.07-10.95-.53c0,0-8.28-20.43-8.95-29.25,0,0,12.29,28.58,19.9,29.78Z"/>
        <path class="cls-2" d="m115.32,165.37s9.35,33.26,10.82,41.8c0,0-8.95-37.8-12.69-42.21l1.87.4Z"/>
        <path class="cls-2" d="m83.23,165.8c-.3-.1,1.1,13.42-.3,19.03,0,0,1.9-14.42,1.9-18.73"/>
      </g>
      <g>
        <g>
          <g>
            <path class="cls-13" d="m52.26,48.5s-3.62-5.83-7,.35,1.87,17.85,10.5,16.56c8.63-1.28,11.32-6.07,11.32-6.07,0,0-7.35-13.53-7.35-13.18s-7.47,2.33-7.47,2.33Z"/>
            <path class="cls-13" d="m145.71,48.5s3.62-5.83,7,.35c3.38,6.18-1.87,17.85-10.5,16.56-8.63-1.28-11.32-6.07-11.32-6.07,0,0,7.35-13.53,7.35-13.18,0,.35,7.47,2.33,7.47,2.33Z"/>
            <path class="cls-1" d="m50.77,51.36l.99,10.65s-3.72.84-4.56-3.07c-.84-3.91-2.18-2.58-1.39-6.99.79-4.41,4.21-3.47,4.21-3.47,0,0,1.09-.64.74,2.87Z"/>
            <path class="cls-1" d="m147.24,51.51l-.99,10.65s3.72.84,4.56-3.07,2.18-2.58,1.39-6.99c-.79-4.41-4.21-3.47-4.21-3.47,0,0-1.09-.64-.74,2.87Z"/>
          </g>
          <ellipse class="cls-13" cx="98.71" cy="49.2" rx="46.73" ry="39.81"/>
        </g>
        <g>
          <ellipse class="cls-11" cx="87.18" cy="51.03" rx="3.7" ry="4.01"/>
          <ellipse class="cls-11" cx="111.78" cy="50.87" rx="3.7" ry="4.01"/>
          <path class="cls-12" d="m90.67,65.33c-.09-.1,8.07,10.5,17.75,0"/>
          <ellipse class="cls-15" cx="78.2" cy="64.14" rx="10.07" ry="7.54"/>
          <ellipse class="cls-15" cx="122.56" cy="61.87" rx="10.07" ry="7.54"/>
        </g>
      </g>
      <g>
        <path class="cls-6" d="m141.78,67c-.39,4.7-1.79,16.4-6.16,20.41,0,0,18.37-1.4,14.52-48.12S89.77,1.64,89.77,1.64c0,0,38.16,44.65,38.68,44.82s15.88,11.25,15.88,11.25l-1.71,5.18c-.44,1.33-.72,2.71-.84,4.11Z"/>
        <path class="cls-7" d="m92.48,3.23s35.66,44.61,52.89,54.23c0,0-3.47,23.97-6.61,27.58,0,0,8.61-3.27,10.22-32.79,1.6-29.52-22.44-53.96-56.5-49.02Z"/>
        <g>
          <path class="cls-6" d="m59.84,22.66c-.52-.52,9.45,9.62,9.45,10.32s-12.6,49.17,6.65,60.19c0,0-16.8-3.67-20.47-19.77,0,0-1.05,8.57,4.9,14,0,0-14.52-4.55-10.67-42.87C53.54,6.21,89.37,1.78,89.37,1.78l16.67,14.93-46.19,5.95Z"/>
          <path class="cls-7" d="m56.35,59.09c-.1.5-3.71,22.44,14.83,31.75,0,0-9.08-12.79-7.48-25.71l1.77-15.7,2.41-15.59-9.68-9.48s-16.93,28.21-1.24,59.47c0,0-3.41-6.36-2.1-11.92l1.5-12.82Z"/>
          <g>
            <g>
              <path class="cls-6" d="m96.76,20.73s-30.97,34.47-44.62,31.32c0,0-6.82-39.2,33.77-45.84l6.65-.47c4.38-.31,8.59,1.72,11.07,5.35l1.7,2.48-8.57,7.17Z"/>
              <path class="cls-7" d="m51.98,49.2s21.33-2.7,45.17-30.34l.4,1.2s-32.39,35.39-45.41,32.12l-.16-2.98Z"/>
            </g>
            <g>
              <path class="cls-6" d="m92.37,5.7c.35,1.22,15.07,54.58,51.81,51.78,0,0,14.62-33.29-27.66-49.34-6.84-2.6-14.21-3.49-21.48-2.72l-2.67.28Z"/>
              <path class="cls-7" d="m92.61,5.97s8.63,40.62,52.97,46.5c0,0-.62,3.52-1.62,5.06,0,0-32.46,7.18-51.35-51.55Z"/>
            </g>
          </g>
        </g>
      </g>
    </g>
  </g>
</svg>