<?xml version="1.0" encoding="UTF-8"?>
<svg id="Capa_2" data-name="Capa 2" xmlns="http://www.w3.org/2000/svg" viewBox="0 0 171.46 264.8">
  <defs>
    <style>
      .cls-1, .cls-2, .cls-3, .cls-4, .cls-5, .cls-6, .cls-7, .cls-8, .cls-9, .cls-10, .cls-11, .cls-12, .cls-13, .cls-14, .cls-15, .cls-16, .cls-17, .cls-18, .cls-19, .cls-20, .cls-21, .cls-22, .cls-23, .cls-24, .cls-25, .cls-26, .cls-27, .cls-28, .cls-29, .cls-30, .cls-31, .cls-32 {
        stroke-miterlimit: 10;
      }

      .cls-1, .cls-2, .cls-5, .cls-11, .cls-13, .cls-27 {
        stroke: #eab0d3;
      }

      .cls-1, .cls-11, .cls-13 {
        fill: #eab0d3;
      }

      .cls-2, .cls-5 {
        fill: #f7cbe6;
      }

      .cls-2, .cls-11 {
        stroke-width: .56px;
      }

      .cls-3 {
        stroke: #000;
      }

      .cls-3, .cls-19 {
        stroke-width: .92px;
      }

      .cls-3, .cls-22 {
        fill: none;
      }

      .cls-4 {
        fill: #d8a188;
      }

      .cls-4, .cls-7, .cls-9, .cls-10 {
        stroke: #db9f77;
      }

      .cls-6 {
        fill: #b1bbe8;
      }

      .cls-6, .cls-14, .cls-17 {
        stroke: #b1b6e8;
      }

      .cls-6, .cls-14, .cls-17, .cls-23 {
        stroke-width: .23px;
      }

      .cls-7 {
        stroke-width: .87px;
      }

      .cls-7, .cls-9 {
        fill: #f9c7a5;
      }

      .cls-8 {
        fill: #9b643e;
      }

      .cls-8, .cls-25 {
        stroke: #9b643e;
        stroke-width: 1.78px;
      }

      .cls-10 {
        fill: #db9f77;
      }

      .cls-33 {
        fill: #dd7292;
      }

      .cls-12 {
        fill: #1d3f0a;
      }

      .cls-12, .cls-21 {
        stroke: #1d3f0a;
      }

      .cls-12, .cls-21, .cls-30, .cls-31 {
        stroke-width: .31px;
      }

      .cls-13, .cls-18, .cls-27 {
        stroke-width: .28px;
      }

      .cls-14 {
        fill: #b1b6e8;
      }

      .cls-15 {
        stroke-width: .55px;
      }

      .cls-15, .cls-30 {
        fill: #c63c50;
      }

      .cls-15, .cls-30, .cls-31 {
        stroke: #680514;
      }

      .cls-16 {
        opacity: .5;
      }

      .cls-16, .cls-24, .cls-28, .cls-29 {
        stroke-width: .95px;
      }

      .cls-16, .cls-26 {
        fill: #c19130;
      }

      .cls-16, .cls-28 {
        stroke: #c19130;
      }

      .cls-17 {
        fill: #efcbcb;
      }

      .cls-18 {
        fill: #efdce8;
        stroke: #efdce8;
      }

      .cls-19 {
        fill: #2d2825;
        stroke: #1d1d1b;
      }

      .cls-20 {
        fill: #aa4b88;
      }

      .cls-20, .cls-22, .cls-32 {
        stroke: #aa4b88;
      }

      .cls-21 {
        fill: #306812;
      }

      .cls-23 {
        fill: #dde2ed;
        stroke: #dde2ed;
      }

      .cls-24, .cls-26 {
        stroke: #f7d379;
      }

      .cls-24, .cls-29 {
        fill: #f7e6bf;
      }

      .cls-25 {
        fill: #c6916d;
      }

      .cls-26 {
        stroke-width: .5px;
      }

      .cls-27 {
        fill: #f4f4cb;
      }

      .cls-28 {
        fill: #f7d379;
      }

      .cls-29 {
        stroke: #f7e6bf;
      }

      .cls-31 {
        fill: #680514;
      }

      .cls-32 {
        fill: #e588bb;
      }
    </style>
  </defs>
  <g id="Capa_26" data-name="Capa 26">
    <g>
      <path class="cls-25" d="m21.41,111.79S-5.45,39.08,56.92,17.56c62.37-21.53,86.39,29.59,86.39,29.59,0,0,13.76,20.3,1.26,64.37-12.5,44.06,20.46,62.39,24.14,59.38,0,0-5.1,12.39-22.31,6.85,0,0,11.26,10.69,5.34,36.5-.25,1.07-16.6-.45-23.1-6.23,0,0-10.67,27.99-39.13,35.62-.08.02-.15.06-.22.02-2.19-1.21-32.62-.96-45.03-33.97-.07-.17-.31-.17-.37,0-1.02,2.7-11.6,16.15-10.15,22.52.05.21-.24.34-.36.16-3.71-5.42-18.29-32.07-8.53-53.56,0,0-21.47-4.92-23.93-21.17-1.11.44,20.6-7.13,21.96-24.74.99-12.88-1.48-21.08-1.48-21.08Z"/>
      <path class="cls-8" d="m.93,157.61s1.16,10.96,28.28,3.32c27.13-7.63,47.97-31.83,47.97-31.83,0,0-10.51,52.63-52.46,49.65,0,0-22.1-5.26-23.79-21.15Z"/>
      <path class="cls-8" d="m33.42,231.07s0-.89,1.02-4.67c0,0,1.83-4.99,3.65-7.61,1.91-2.76,5.81-9.04,6.03-9.65s22.94-23.88,20.01-35.39c0,0-50.4-12.65-30.71,57.33Z"/>
      <path class="cls-8" d="m168.24,171.66s-18.29,33.25-66.38-39.68c0,0,51.03,53.16,66.38,39.68Z"/>
      <path class="cls-8" d="m151.45,214.41s-38.05,5.83-56.93-62.64c0,0,48.09-5.24,56.93,62.64Z"/>
      <path class="cls-8" d="m89.55,243.67s29.94-21.89,24.92-59.49c-5.02-37.6-64.47-22.54-52.58-1.93-7.93,20.08,4.06,52.82,27.66,61.42Z"/>
      <path class="cls-8" d="m133.89,121.35c7.32-20.87,13.11-54.24-9.45-81.48-6.28-7.58-15.38-12.28-25.19-13.01-25-1.88-73.87,3.05-64.47,72.64.31,2.28.39,4.58.27,6.88-.8,15.07-2.26,73.43,22.62,77.93,26.47,4.78,67.36,3.12,69.2-27.13.74-12.21,2.97-24.28,7.02-35.83Z"/>
      <path class="cls-8" d="m99.48,150.59s36.15-8.25,42.25,46.61l-50.44-23.69,8.19-22.91Z"/>
      <path class="cls-8" d="m50.6,150.15s-17.62,39.9-17,60.24l30.58-35.14-13.58-25.1Z"/>
      <path class="cls-8" d="m127.22,119.23s-6.18,26.44,16.59,49.42c22.78,22.98-37.47-14.19-37.47-14.19l20.87-35.23Z"/>
      <path class="cls-8" d="m39.16,106.45s.11,52.66-22.91,55.91c-23.6,3.33,17.35,4.44,17.35,4.44l25.53-22.48-19.96-37.86Z"/>
      <path class="cls-9" d="m66.44,126.55l-27.05,7.17s-23.2-35.7-26.71-17.18c-3.51,18.52,16.5,35.19,26.11,34.11,9.61-1.08,27.65-24.11,27.65-24.11Z"/>
      <path class="cls-9" d="m100.16,126.43l27.29,6.22s21.94-36.48,26.09-18.1c4.16,18.39-15.27,35.74-24.9,35-9.64-.74-28.48-23.13-28.48-23.13Z"/>
      <path class="cls-4" d="m12.28,121.06s-.35-10.78,3.89-1.54c4.24,9.24,20.73,31.05,25.18,24.01l.64,5.99s-6.37,4.43-17.4-5.05c-11.04-9.48-12.33-20.49-12.2-23.29"/>
      <path class="cls-4" d="m154.09,119.05s-.03-10.78-3.94-1.41-19.63,31.75-24.32,24.87l-.44,6.01s6.52,4.21,17.22-5.65c10.7-9.86,11.61-20.91,11.38-23.7"/>
      <path class="cls-32" d="m44.74,132.28c.08-.28-1.27-3.66,3.18-3.21l12.59-1.98s4.23-9.09,13.97-.77c9.74,8.32-4.08,22.01-4.08,22.01l-10.96-3.98-5.24,3.28s-1.06,4.82-6.56,3.14c-3.8-1.16-2.89-18.5-2.89-18.5Z"/>
      <path class="cls-32" d="m123.01,131.95c-.09-.28,1.14-3.7-3.29-3.1l-12.65-1.54s-4.54-8.93-13.99-.28c-9.44,8.66,4.55,22.01,4.55,22.01l10.92-3.37,6.49,1.28s1.26,4.86,6.21,3.15c3.75-1.3,1.75-18.15,1.75-18.15Z"/>
      <path class="cls-20" d="m45.01,138.32s.52-6.14,8.91-3.05c2.43.89,3.49-.77,6.53-2.42,1.75-.95,1.04-6.48,7.05-6.46,9.57.03,9.07,6.82,9.41,9.79l-.83,4.07c-1.28,1.88-2.2,3.96-3.76,5.7l-1.39,1.63c-.5.82-1.2.51-1.6.36l-9.81-3.79-5.39,3.23s-1.12,5.59-7.3,2.84c0,0-4.28-10.02-1.82-11.92Z"/>
      <path class="cls-20" d="m97.63,149.04l10.92-3.37,6.49,1.28s1.09,3.36,3.84,3.5c2.75.14,4.04-1.02,4.15-4.01s-.02-4.15-.02-4.15h-1.59s-.18,2.2-4.13,1.22c0,0-3.59-.58-10.08-6.68,0,0-5.45-15.61-16.82-5.94,0,0-4.25,5.13,7.24,18.15Z"/>
      <path class="cls-32" d="m64.87,126.64c-2.23,2.63-14.41,17.92-9.57,33.17,0,0-1.97,8.35,2.44,9.33,0,0,2.25,18.01,14.76,19.78,12.5,1.77,30.68,2.01,32.4-7.05,1.72-9.06,3.75-12.17,3.75-12.17,0,0,5.99-.14,1.77-9.2,0,0,6.9-14.24-10.99-36.2-.39-.47-.89-.84-1.45-1.07-3.77-1.52-18.83-6.6-32.36,2.72-.28.19-.52.42-.74.67Z"/>
      <path class="cls-20" d="m55.04,145.43s25.01,22.34,55.44-1.09c0,0,2.57,9.82-.07,16.17,0,0,4.08,8-1.77,9.2-.81.17,3.82,5.42-3.52,11.28-6.22,4.97-14.24,10.86-20.36,8.7l-7.29-.41c-5.69-.37-9.65-1.02-13.51-5.21l-.3-.46c-1.73-2.62-3.51-5.39-4.45-8.39l-1.47-6.08s-3.84-.69-2.44-9.33c0,0-2.39-8.07-.26-14.38Z"/>
      <g>
        <path class="cls-32" d="m57.87,169.12c.08-.09,4.35,1.85,8.82,1,3.29-.62,7.75-2.3,11.8-.71,3.37,1.32,6.61.8,9.75.34,3.41-.49,7,1.42,9.7.36,1.89-.74,3.88,1.04,5.44.21,2.98-1.6,5.85-.45,5.85-.45,0,0,35.28,49.17,40.72,73.1.44,1.92-.89,3.79-2.84,4.03-5.32.64-16.06-.91-18.56,6.83-.38,1.18-1.14,2.2-2.12,2.96-3.5,2.67-11.87,7.56-21.51,2.64-1.59-.81-3.36-1.24-5.14-1.21-2.39.04-5.94.24-9.87.88-1.38.23-2.61.99-3.51,2.06-1.92,2.29-6.99,5.98-17.12-.38-.55-.34-1.13-.63-1.74-.83-2.85-.97-11-3.2-17.85.23-2.46,1.23-5.21,1.77-7.95,1.44-2.28-.28-5.05-.84-7.76-1.94-3.94-1.59-7.05-4.69-8.91-8.5-.83-1.69-2.44-3.68-5.51-4.06-4.8-.6-8.53-4.45-8.72-9.28-.01-.33-.02-.67-.02-1.03,0-.26.06-.52.16-.76,1.4-3.32,12.7-28.56,46.89-66.89Z"/>
        <path class="cls-20" d="m144.25,247.17c-11.62-.23-14.2,4.01-14.22,3.92-1.18-5.76-12.69-69.1-21.2-81.43,0,0,33.76,45.77,40.31,71.01,1.44,3.07,1.53,6.63-4.89,6.5Z"/>
        <path class="cls-20" d="m103.08,258.65c-1.69.4-12.76-2.62-15.16,1.46-.05.08-.17.04-.17-.05.5-5.86,12.41-48.7,7.73-62.93,0,0,9.77,35.5,8.03,61.09-.02.22-.22.39-.44.44Z"/>
        <path class="cls-20" d="m24.24,249.79s10.36-7.59,27.35-46.55c0,0-25.22,40.31-32.04,43.85,0,0,2.46,1.75,4.69,2.7Z"/>
        <path class="cls-20" d="m68.21,260.19s-8.89-3.95-16.02-1.04c0,0,25.51-35.64,26.73-63.66,0,0-4.25,48.07-10.7,64.7Z"/>
      </g>
      <path class="cls-5" d="m40.48,133.31l1.47,16.4s4.18-1.99,4.79-2.8-1.91-14.92-1.91-14.92l-4.35,1.32Z"/>
      <path class="cls-5" d="m127.34,132.65l-.9,16.44s-4.24-1.84-4.88-2.63,1.39-14.98,1.39-14.98l4.39,1.16Z"/>
      <path class="cls-1" d="m41.36,143.1s2.68.03,4.5-4.95c0,0,1.17,6.27.98,8.69,0,0-.1.63-4.88,2.87l-.59-6.62Z"/>
      <path class="cls-1" d="m121.65,142.09s1.87,3.14,5.1,1.34l-.31,5.66s-4.21-1.81-5.01-2.73c0,0-.12-1.13.21-4.27Z"/>
      <path class="cls-22" d="m118.19,147.3s-.97,1.78-2.8.99"/>
      <path class="cls-22" d="m48.18,142.84s-1.67-2.41.69-4.04c.09-.06.19-.12.29-.19"/>
      <path class="cls-2" d="m82.55,124.47l-.46,2.64c-.11.63-.67,1.07-1.31,1.01-2.36-.19-7.92-.82-11.36-2.66-.81-.43-.87-1.57-.12-2.09s1.53-1.03,2-1.19c.89-.31,21.42-.92,25.1-1.02.36-.01.7.14.94.4l1.66,2.2c.33.43.18,1.05-.3,1.29-1.77.89-6.18,2.1-11.94,2.97-.66.1-1.27-.34-1.39-.99l-.47-2.59c-.07-.4-.33-.76-.71-.9-.1-.04-.21-.07-.32-.08-.63-.08-1.21.39-1.31,1.01Z"/>
      <path class="cls-11" d="m69.31,123.37s3.79,4.14,12.84,3.46c0,0,.11,1.7-2.15,1.22,0,0-8.46-.65-11-2.9,0,0-.65-.94.31-1.78Z"/>
      <path class="cls-11" d="m85.28,126.5s7.26,1.95,13.45-3.12l.42.63s.37.76-.77,1.2-5.51,1.84-6.89,1.97c0,0-4.59.86-4.82.86s-1.22.1-1.39-1.53Z"/>
      <ellipse class="cls-7" cx="83.03" cy="75.18" rx="54.5" ry="48.79" transform="translate(-1.46 1.64) rotate(-1.12)"/>
      <path class="cls-10" d="m130.59,98.83s-44.28,47.84-94.06,1.98c0,0,4.23,5.93,9.15,10.04,4.92,4.11,10.11,7.48,18.92,10.33,0,0,9.53,3.26,19.68,2.77,0,0,10.76.14,21.4-4.47s14.4-8.74,17.81-11.77c3.41-3.03,6.93-8.6,7.11-8.89Z"/>
      <g>
        <g>
          <path class="cls-15" d="m80.7,138.78l1.18-.39s.65-.24,1.14-.75c0,0,.22,1.02.18,1.08s-1.29.83-1.35.83-1.18-.34-1.19-.32.03-.46.03-.46Z"/>
          <path class="cls-30" d="m80.95,139.2s1.36-.37,1.82-1.32c.08-.16.21-.29.37-.38.03-.02.07-.03.11-.05.79-.32,2.21.14,2.78,1.27.73,1.43.79,3.43.27,4.02s-2.39,2.1-3.96,1.73-3.2-2.2-3.22-3.16c-.02-.96.18-2.3,1.29-2.59,1.11-.29,1.72-.41,2.11-.71s.27-.18.28-.2"/>
        </g>
        <path class="cls-21" d="m81.59,138.87s-1.57-3.44-.87-5.92.13.02.13.02c0,0-.64,2.64,1.06,5.46,0,0,.32.2-.32.45Z"/>
        <path class="cls-21" d="m80.63,132.78s-3.58-1.12-2.83,3.91c0,0,2.72-1.78,2.04-3.97l.78.06Z"/>
      </g>
      <path class="cls-31" d="m80.22,143.12s-1.31-2.83,2.86-1.05,3.43-1.87,3.43-1.87c0,0,.38,1.74-.19,2.4s-2.53,2.25-4.1,1.78c0,0-1.15-.3-2.01-1.27Z"/>
      <path class="cls-12" d="m81.71,138.76c.06.02-1.81-3.4-.7-6.8,0,0-1.38,2.44.52,6.86l.17-.06Z"/>
      <path class="cls-12" d="m78.14,133.55s-.75,1.76.04,2.81l-.39.33s-.42-2.06.35-3.14Z"/>
      <g>
        <ellipse class="cls-19" cx="68.06" cy="79.25" rx="4.4" ry="4.77"/>
        <ellipse class="cls-19" cx="97.33" cy="79.07" rx="4.4" ry="4.77"/>
        <path class="cls-3" d="m72.21,96.28c-.11-.12,9.6,12.5,21.11,0"/>
        <ellipse class="cls-33" cx="57.38" cy="94.85" rx="11.99" ry="8.97"/>
        <ellipse class="cls-33" cx="110.16" cy="92.16" rx="11.99" ry="8.97"/>
      </g>
      <path class="cls-25" d="m143.14,56.09c-20.9,31.74-85.98-23.59-85.63-24.63,4.97-14.79,18.19-15.51,28.44-13.49,9.4.66,43.64,2.2,51.91,32.18.13.46.42,1.17.65,1.6,2.8,5.09,4.64,4.34,4.64,4.34Z"/>
      <path class="cls-8" d="m83.35,48.7s43.08,27.12,58.98,7.41c0,0,.42.24.5.2,0,0-11.72,24.71-60.85-6.56l1.37-1.05Z"/>
      <path class="cls-25" d="m106.15,27.75s-46.89,50.19-79.03,46.01c0,0-3.16-14.61,6.15-27.61,4.98-6.95,22.44-42.53,72.88-18.4Z"/>
      <path class="cls-8" d="m83.42,48.53s-18.61,17.2-56.45,23.7l.27,1.45s20.41,4.87,56.19-25.16Z"/>
      <path class="cls-28" d="m126.5,26.08c-.09-.13-.19-.25-.28-.37h0c-.05-.03-.11-.05-.17-.05-.05,0-.1.02-.15.04-.07.08-.14.16-.21.24,0,0,0,0,0,0-1.24,1.26-3.74,2.14-6.64,2.2-.92.02-1.81-.05-2.63-.19.04-.45.05-.9.05-1.36-.03-1.55-.34-3.01-.86-4.32-.17-.42-.36-.83-.57-1.22-.36-.65-.77-1.25-1.23-1.79-.3-.36-.63-.69-.98-.98h0c-.15-.2-.31-.34-.46-.38h0c-.07-.02-.13-.02-.19,0-.08.03-.14.09-.17.18-.06.13-.08.31-.06.53-.45,3.13-2.63,5.52-5.3,5.57-2.3.05-4.31-1.66-5.19-4.13-.28-.8-.45-1.67-.46-2.59,0-.42.02-.84.07-1.24,0,0,0,0,0-.01.12-.18.14-.38.07-.51-.02-.03-.04-.06-.07-.08-.08-.05-.19-.05-.3,0t0,0c-.08.04-.17.12-.23.22-.03.05-.06.1-.08.15-1.02,1.16-2.3,2.06-3.75,2.59-.68.25-1.39.42-2.14.5-.25.03-.51.04-.77.05-4.55.09-8.4-3.26-9.32-7.77-.1-.5-.17-1.01-.19-1.53,0-.11,0-.22-.01-.34,0-.06,0-.12,0-.19.59-1.09.92-2.36.89-3.71,0-.15-.01-.3-.02-.45h0c-.13-1.67-.8-3.18-1.82-4.33-.99,1.2-1.6,2.76-1.65,4.45h0c0,.13,0,.26,0,.39.03,1.36.41,2.62,1.05,3.69h0c0,.09,0,.17,0,.26,0,.1,0,.2,0,.3,0,.49-.04.97-.11,1.44h0c-.07.44-.16.86-.28,1.28,0,0,0,0,0,0-.07.25-.15.5-.24.74-1.33,3.59-4.62,6.16-8.51,6.24-.27,0-.53,0-.79-.02-.76-.05-1.49-.2-2.19-.43-1.46-.49-2.78-1.34-3.83-2.46,0-.11-.03-.24-.11-.36-.12-.18-.29-.27-.43-.26-.04,0-.08.01-.11.04-.03.02-.05.04-.07.07-.08.13-.05.33.07.51.02.03.04.05.06.08h0c.08.45.13.91.14,1.39.02.91-.11,1.79-.36,2.59-.77,2.51-2.72,4.3-5.03,4.35-2.7.05-4.99-2.29-5.53-5.44,0-.18-.01-.34-.07-.46-.04-.1-.11-.18-.2-.21-.06-.02-.12-.02-.18,0h0c-.15.05-.31.19-.45.39h0c-.33.31-.65.65-.94,1.02-.44.56-.83,1.17-1.16,1.84-.2.4-.37.81-.52,1.24-.47,1.33-.72,2.8-.69,4.35,0,.46.04.92.1,1.36-.81.17-1.7.27-2.62.29-2.91.06-5.45-.74-6.73-1.95-.07-.1-.14-.18-.22-.22-.05-.03-.1-.04-.15-.04s-.11.02-.16.05c0,0,0,0,0,0-.11.07-.2.2-.27.39-1.19,1.78-1.87,3.95-1.82,6.29.03,1.32.28,2.58.73,3.74.04.1.07.2.12.29,1.62-.86,3.35-1.69,5.16-2.46,2.23-.95,4.6-1.82,7.09-2.61,2.2-.7,4.49-1.33,6.87-1.89,2.82-.67,5.75-1.23,8.78-1.68,5.03-.75,10.32-1.21,15.79-1.32,5.47-.11,10.78.14,15.83.7,3.05.34,6,.79,8.84,1.34,2.4.47,4.71,1.01,6.93,1.62,2.52.69,4.92,1.47,7.18,2.33,1.85.7,3.6,1.45,5.26,2.25.04-.1.07-.2.1-.3.4-1.17.61-2.44.58-3.76-.05-2.34-.81-4.49-2.07-6.22Zm-71.83,1.78c.81-.59,1.33-1.28,1.43-2.03.36.32.69.67,1,1.05-.83.32-1.64.64-2.43.98Zm28.82-17.38s.05.06.08.09c-.04.04-.07.08-.11.12-.03-.03-.05-.06-.08-.09.04-.04.07-.08.11-.12Zm.23,11.84c-1.05.03-2.08.07-3.09.13.05-.02.11-.04.16-.06,1.12-.42,2.1-1.15,2.86-2.07.79.9,1.8,1.58,2.94,1.96.05.02.1.03.15.05-.99-.02-2-.02-3.02,0Zm26.78,3.51c.29-.38.62-.75.96-1.08.13.74.67,1.42,1.51,1.97-.8-.31-1.62-.61-2.47-.89Z"/>
      <g>
        <circle class="cls-27" cx="47.37" cy="32.64" r="1.59"/>
        <path class="cls-18" d="m46.83,31.35c-.2.03-.37.18-.51.32-.33.34-.41.77-.39.93.03.2.02-.19.22-.46s.3-.54.64-.75c.13-.08.12-.06.04-.05Z"/>
        <path class="cls-13" d="m47.97,32.9s-.71-.04-.68.6c0,0,.02.2.3.14s.54-.23.57-.4.02-.38-.18-.34Z"/>
        <path class="cls-13" d="m48.81,31.96s.55,2.27-2.16,2.1c0,0,.93.48,1.72-.18,0,0,.96-.78.44-1.93Z"/>
        <path class="cls-18" d="m47.18,31.19c-.09,0-.15.05-.15.1s.07,0,.16-.01.16.04.16-.01-.08-.08-.16-.07Z"/>
      </g>
      <g>
        <ellipse class="cls-17" cx="42.68" cy="34.64" rx="1.34" ry="1.31"/>
        <path class="cls-23" d="m42.22,33.57c-.17.02-.31.15-.43.27-.28.28-.34.63-.32.77.02.16.02-.15.18-.38s.25-.44.54-.62c.11-.07.1-.05.03-.04Z"/>
        <path class="cls-14" d="m43.18,34.85s-.59-.04-.58.49c0,0,.02.17.25.11s.46-.19.48-.33.02-.32-.15-.28Z"/>
        <path class="cls-6" d="m43.88,34.08s.46,1.87-1.82,1.73c0,0,.78.39,1.45-.14,0,0,.81-.64.37-1.59Z"/>
        <path class="cls-23" d="m42.51,33.44c-.07,0-.13.04-.13.08s.06,0,.13,0,.13.03.13,0-.06-.07-.14-.06Z"/>
      </g>
      <g>
        <circle class="cls-27" cx="56.97" cy="29.7" r="1.59"/>
        <path class="cls-18" d="m56.54,28.36c-.21.01-.38.15-.54.28-.36.31-.47.73-.46.89.01.2.04-.19.26-.44s.35-.51.7-.69c.14-.07.12-.05.04-.05Z"/>
        <path class="cls-13" d="m57.54,30.01s-.7-.1-.73.54c0,0,0,.21.28.16s.56-.18.6-.35.05-.38-.15-.35Z"/>
        <path class="cls-13" d="m58.46,29.14s.36,2.31-2.33,1.91c0,0,.88.55,1.73-.03,0,0,1.03-.7.6-1.88Z"/>
        <path class="cls-18" d="m56.9,28.23c-.09,0-.16.04-.16.08s.07,0,.16,0,.16.05.16,0-.07-.09-.16-.09Z"/>
      </g>
      <g>
        <ellipse class="cls-17" cx="52.12" cy="31.19" rx="1.31" ry="1.34" transform="translate(16.65 80.49) rotate(-85.16)"/>
        <path class="cls-23" d="m51.75,30.08c-.17,0-.32.12-.45.23-.3.25-.4.6-.39.74,0,.16.03-.15.22-.36s.29-.42.59-.57c.12-.06.1-.04.04-.04Z"/>
        <path class="cls-14" d="m52.6,31.44s-.59-.09-.61.44c0,0,0,.17.24.13s.47-.15.5-.28.04-.31-.13-.29Z"/>
        <path class="cls-6" d="m53.37,30.73s.3,1.9-1.96,1.57c0,0,.74.46,1.45-.02,0,0,.86-.57.5-1.55Z"/>
        <path class="cls-23" d="m52.06,29.98c-.07,0-.13.03-.13.07s.06,0,.13,0,.13.04.13,0-.06-.07-.13-.07Z"/>
      </g>
      <g>
        <circle class="cls-27" cx="66.47" cy="27.32" r="1.59"/>
        <path class="cls-18" d="m66.2,25.94c-.21-.01-.39.1-.57.22-.39.27-.55.67-.56.83-.01.2.06-.18.31-.4s.4-.47.78-.61c.15-.05.13-.04.05-.04Z"/>
        <path class="cls-13" d="m67.01,27.69s-.68-.18-.79.45c0,0-.02.2.26.19s.58-.11.63-.27.09-.37-.11-.37Z"/>
        <path class="cls-13" d="m68.02,26.94s.09,2.33-2.54,1.63c0,0,.81.65,1.72.17,0,0,1.1-.57.82-1.8Z"/>
        <path class="cls-18" d="m66.57,25.85c-.09-.01-.16.02-.17.06s.07,0,.16.02.15.07.16.02-.06-.09-.14-.1Z"/>
      </g>
      <g>
        <ellipse class="cls-17" cx="61.47" cy="28.34" rx="1.31" ry="1.34" transform="translate(21.45 82.93) rotate(-78.51)"/>
        <path class="cls-23" d="m61.24,27.2c-.17-.01-.33.08-.47.18-.33.22-.46.55-.47.69,0,.16.05-.15.26-.33s.34-.39.65-.5c.12-.04.11-.03.04-.03Z"/>
        <path class="cls-14" d="m61.92,28.65s-.57-.15-.66.37c0,0-.02.17.22.16s.48-.09.53-.22.08-.31-.09-.3Z"/>
        <path class="cls-6" d="m62.76,28.03s.08,1.92-2.13,1.34c0,0,.69.54,1.45.15,0,0,.92-.47.68-1.48Z"/>
        <path class="cls-23" d="m61.55,27.13c-.07,0-.13.01-.14.05s.06,0,.13.02.13.06.13.02-.05-.08-.12-.09Z"/>
      </g>
      <g>
        <circle class="cls-27" cx="76.46" cy="26.34" r="1.59"/>
        <path class="cls-18" d="m76.31,24.94c-.2-.03-.4.07-.58.17-.42.23-.61.62-.63.78-.03.2.07-.17.34-.38s.44-.43.82-.54c.15-.04.13-.03.05-.04Z"/>
        <path class="cls-13" d="m76.96,26.76s-.67-.24-.82.38c0,0-.04.2.25.21s.58-.07.66-.22.13-.36-.08-.37Z"/>
        <path class="cls-13" d="m78.03,26.09s-.11,2.33-2.67,1.41c0,0,.76.72,1.7.32,0,0,1.14-.48.96-1.72Z"/>
        <path class="cls-18" d="m76.68,24.89c-.08-.02-.16,0-.17.05s.07.01.15.03.14.08.15.03-.05-.1-.14-.12Z"/>
      </g>
      <g>
        <ellipse class="cls-17" cx="71.41" cy="26.84" rx="1.31" ry="1.34" transform="translate(25.59 87.82) rotate(-73.68)"/>
        <path class="cls-23" d="m71.27,25.68c-.17-.03-.34.05-.49.14-.35.19-.51.51-.53.64-.02.16.06-.14.28-.31s.37-.36.69-.44c.13-.03.11-.02.04-.03Z"/>
        <path class="cls-14" d="m71.83,27.18s-.56-.2-.69.31c0,0-.03.17.21.18s.49-.05.55-.18.1-.3-.07-.31Z"/>
        <path class="cls-6" d="m72.73,26.63s-.08,1.92-2.23,1.15c0,0,.64.59,1.43.27,0,0,.96-.39.8-1.42Z"/>
        <path class="cls-23" d="m71.59,25.64c-.07-.02-.14,0-.14.04s.06.01.13.03.12.07.13.03-.04-.08-.11-.1Z"/>
      </g>
      <g>
        <circle class="cls-27" cx="86.65" cy="25.68" r="1.59"/>
        <path class="cls-18" d="m86.58,24.27c-.2-.04-.41.04-.59.13-.43.21-.64.59-.68.74-.04.2.08-.17.36-.35s.47-.41.85-.49c.15-.03.13-.02.05-.04Z"/>
        <path class="cls-13" d="m87.13,26.13s-.65-.28-.85.33c0,0-.05.2.23.23s.59-.03.67-.18.15-.36-.06-.38Z"/>
        <path class="cls-13" d="m88.24,25.52s-.25,2.32-2.75,1.25c0,0,.71.76,1.68.42,0,0,1.17-.41,1.07-1.66Z"/>
        <path class="cls-18" d="m86.96,24.24c-.08-.02-.16,0-.17.04s.07.02.15.04.14.09.15.04-.04-.1-.13-.12Z"/>
      </g>
      <g>
        <ellipse class="cls-17" cx="81.56" cy="25.97" rx="1.31" ry="1.34" transform="translate(29.56 93.96) rotate(-70.26)"/>
        <path class="cls-23" d="m81.49,24.81c-.17-.04-.34.03-.49.11-.36.17-.54.48-.56.61-.03.16.07-.14.3-.29s.39-.33.71-.4c.13-.03.11-.02.04-.03Z"/>
        <path class="cls-14" d="m81.96,26.34s-.55-.23-.71.27c0,0-.04.16.2.19s.49-.02.56-.15.12-.29-.05-.31Z"/>
        <path class="cls-6" d="m82.89,25.85s-.2,1.92-2.3,1.02c0,0,.6.63,1.41.35,0,0,.98-.33.89-1.37Z"/>
        <path class="cls-23" d="m81.81,24.79c-.07-.02-.14,0-.15.03s.06.02.13.04.12.07.13.04-.04-.08-.11-.1Z"/>
      </g>
      <g>
        <circle class="cls-27" cx="96.68" cy="26.15" r="1.59"/>
        <path class="cls-18" d="m96.73,24.74c-.2-.06-.41,0-.6.08-.44.17-.69.53-.74.68-.06.19.1-.16.39-.32s.5-.37.89-.41c.16-.02.13,0,.06-.03Z"/>
        <path class="cls-13" d="m97.12,26.63s-.62-.33-.87.26c0,0-.07.19.21.25s.59.02.68-.12.18-.34-.02-.38Z"/>
        <path class="cls-13" d="m98.27,26.12s-.44,2.29-2.84,1.01c0,0,.64.82,1.64.56,0,0,1.2-.31,1.2-1.57Z"/>
        <path class="cls-18" d="m97.11,24.74c-.08-.03-.16-.02-.18.03s.07.02.15.05.13.1.15.05-.04-.1-.12-.13Z"/>
      </g>
      <g>
        <ellipse class="cls-17" cx="91.61" cy="25.91" rx="1.31" ry="1.34" transform="translate(29.94 98.44) rotate(-65.42)"/>
        <path class="cls-23" d="m91.64,24.75c-.17-.05-.34,0-.5.06-.37.14-.58.43-.61.56-.05.16.08-.13.32-.26s.42-.3.75-.34c.13-.01.11,0,.05-.03Z"/>
        <path class="cls-14" d="m91.98,26.32s-.52-.28-.73.21c0,0-.06.16.18.21s.49.02.57-.1.15-.28-.02-.32Z"/>
        <path class="cls-6" d="m92.95,25.9s-.36,1.89-2.37.82c0,0,.55.68,1.38.47,0,0,1-.25,1-1.29Z"/>
        <path class="cls-23" d="m91.96,24.75c-.07-.03-.13-.02-.15.02s.06.02.12.05.11.08.12.05-.03-.09-.1-.11Z"/>
      </g>
      <g>
        <circle class="cls-27" cx="106.29" cy="27.53" r="1.59"/>
        <path class="cls-18" d="m106.48,26.14c-.19-.08-.41-.03-.61.02-.46.12-.74.46-.8.61-.08.18.11-.15.42-.28s.53-.31.93-.32c.16,0,.13,0,.06-.03Z"/>
        <path class="cls-13" d="m106.68,28.06s-.59-.39-.89.17c0,0-.09.19.19.27s.58.08.69-.06.21-.32.01-.38Z"/>
        <path class="cls-13" d="m107.88,27.67s-.67,2.24-2.93.72c0,0,.56.88,1.58.72,0,0,1.22-.19,1.35-1.44Z"/>
        <path class="cls-18" d="m106.86,26.18c-.08-.04-.16-.03-.18,0s.06.03.14.07.12.11.14.07-.03-.11-.1-.14Z"/>
      </g>
      <g>
        <ellipse class="cls-17" cx="101.23" cy="26.89" rx="1.31" ry="1.34" transform="translate(26.98 100.76) rotate(-59.73)"/>
        <path class="cls-23" d="m101.37,25.74c-.16-.07-.34-.03-.51.01-.38.1-.62.37-.67.5-.06.15.09-.13.35-.23s.44-.26.78-.26c.13,0,.11,0,.05-.02Z"/>
        <path class="cls-14" d="m101.56,27.33s-.49-.33-.74.13c0,0-.07.15.16.22s.49.07.58-.04.17-.27,0-.32Z"/>
        <path class="cls-6" d="m102.56,27.01s-.54,1.85-2.44.58c0,0,.48.73,1.32.6,0,0,1.02-.15,1.12-1.18Z"/>
        <path class="cls-23" d="m101.69,25.77c-.07-.03-.13-.03-.15,0s.05.03.12.06.1.09.12.06-.02-.09-.09-.12Z"/>
      </g>
      <g>
        <circle class="cls-27" cx="116.07" cy="29.82" r="1.59"/>
        <path class="cls-18" d="m116.37,28.45c-.18-.09-.4-.07-.61-.03-.47.09-.78.39-.85.54-.09.18.12-.14.44-.25s.56-.27.95-.24c.16,0,.13.02.06-.02Z"/>
        <path class="cls-13" d="m116.41,30.38s-.55-.44-.9.09c0,0-.1.18.16.28s.57.13.69,0,.24-.3.05-.38Z"/>
        <path class="cls-13" d="m117.64,30.09s-.86,2.17-2.98.48c0,0,.48.92,1.51.85,0,0,1.24-.08,1.47-1.32Z"/>
        <path class="cls-18" d="m116.74,28.52c-.07-.04-.15-.05-.18,0s.06.04.13.08.11.12.13.08-.02-.11-.09-.15Z"/>
      </g>
      <g>
        <ellipse class="cls-17" cx="111.12" cy="28.67" rx="1.31" ry="1.34" transform="translate(23.77 103.09) rotate(-54.89)"/>
        <path class="cls-23" d="m111.37,27.53c-.15-.08-.34-.06-.51-.03-.39.07-.65.32-.71.44-.07.15.1-.12.37-.2s.46-.22.79-.19c.13,0,.11.01.05-.02Z"/>
        <path class="cls-14" d="m111.41,29.13s-.46-.37-.75.07c0,0-.08.15.14.23s.48.11.58,0,.19-.25.04-.31Z"/>
        <path class="cls-6" d="m112.44,28.9s-.7,1.8-2.48.37c0,0,.41.77,1.27.71,0,0,1.03-.06,1.22-1.09Z"/>
        <path class="cls-23" d="m111.68,27.59c-.06-.04-.13-.04-.15,0s.05.03.11.07.09.1.11.07-.01-.09-.08-.13Z"/>
      </g>
      <g>
        <circle class="cls-27" cx="125.15" cy="33.07" r="1.59"/>
        <path class="cls-18" d="m125.63,31.75c-.17-.12-.39-.12-.6-.11-.48.02-.82.29-.91.43-.11.16.14-.12.47-.19s.59-.19.98-.12c.15.03.13.03.06-.01Z"/>
        <path class="cls-13" d="m125.42,33.67s-.49-.51-.91-.02c0,0-.12.16.13.3s.55.2.69.09.27-.27.09-.37Z"/>
        <path class="cls-13" d="m126.68,33.54s-1.13,2.05-3.01.09c0,0,.36.98,1.39,1.03,0,0,1.24.08,1.63-1.12Z"/>
        <path class="cls-18" d="m126,31.87c-.07-.05-.15-.07-.18-.03s.06.04.12.1.09.13.12.1,0-.11-.07-.16Z"/>
      </g>
      <g>
        <ellipse class="cls-17" cx="120.4" cy="31.29" rx="1.31" ry="1.34" transform="translate(16.04 99) rotate(-47.54)"/>
        <path class="cls-23" d="m120.79,30.19c-.14-.1-.33-.1-.5-.09-.4.02-.68.24-.76.35-.09.14.12-.1.39-.15s.49-.16.81-.09c.13.03.11.03.05,0Z"/>
        <path class="cls-14" d="m120.63,31.79s-.41-.43-.76-.03c0,0-.1.14.11.25s.46.17.57.08.23-.22.08-.31Z"/>
        <path class="cls-6" d="m121.68,31.69s-.92,1.69-2.51.05c0,0,.31.81,1.17.87,0,0,1.03.07,1.34-.92Z"/>
        <path class="cls-23" d="m121.09,30.3c-.06-.04-.12-.06-.15-.03s.05.04.1.08.08.11.1.08,0-.09-.06-.14Z"/>
      </g>
      <path class="cls-16" d="m39.91,37.39s39.63-23.93,88.23-1.94l-.25.9s-6.95-3.33-11.71-4.38c0,0-11.21-2.87-14.97-2.98,0,0-10.55-1.38-18.89-.84,0,0-9.14.25-15.5,1.47,0,0-7.98,1.22-12.06,2.67,0,0-5.57,1.64-6.74,2.22-.03.02-.06.03-.08.04,0,0-6.41,2.63-7.78,3.51l-.24-.68Z"/>
      <path class="cls-24" d="m54.96,19.79s.5,3.92,3.23,5.4c0,0-4.26-.29-3.23-5.4Z"/>
      <path class="cls-24" d="m41.69,27.92s1.76,2.19,6.28,2.1c0,0-4.76,2.1-6.28-2.1Z"/>
      <path class="cls-24" d="m66.77,17.15s2.84,3.5,8.1,2.64c0,0-5.89,2.83-8.1-2.64Z"/>
      <path class="cls-29" d="m83.41,1.31l.08,8.05s.61.69,1.26-2.03c.43-1.82.07-3.18-.34-4.25-.13-.33-.33-.72-.51-1.05-.14-.26-.37-.57-.5-.72Z"/>
      <path class="cls-24" d="m100.57,16.48c-.54,1.09-1.4,3.79,1.76,5.91,0,0-2.19-2.77-1.61-5.86.02-.09-.11-.14-.15-.05Z"/>
      <path class="cls-24" d="m112.97,18.85s2.96,2.33,3.27,7.87c0,0-.62-3.13-3.27-7.87Z"/>
      <path class="cls-24" d="m126.33,26.42s1.94,2.53,1.8,6.03c0,0-.3-1.93-1.8-6.03Z"/>
      <path class="cls-24" d="m84.02,11.01s.83,6.3,6.49,8.08c0,0-5.62,1.26-6.49-8.08Z"/>
      <path class="cls-26" d="m66.56,17.3s1.22,4.56,2.38,5.53c0,0-.97.7-5.92,2.01,0,0,3.67-1.19,3.54-7.54Z"/>
      <path class="cls-26" d="m54.67,19.54s-2.1,4.01-1.49,9.09l-1.7.6s-.81-6.16,3.19-9.69Z"/>
      <path class="cls-26" d="m41.21,27.92s-2.82,5.26-1.3,8.96l1.3-.75s-1.51-2.32,0-8.21Z"/>
      <path class="cls-26" d="m83.48,11.54l.09,7.06s-1.91,1.89-6.11.81c0,0,4.58-1.01,6.02-7.87Z"/>
      <path class="cls-26" d="m100.54,16.28s-1.06,4.67-5.97,3.18c0,0,0,0,0,0,.32.02,3.39-.47,5.98-3.17Z"/>
      <path class="cls-26" d="m112.15,18.13s1.63,4.39-2.01,7.29l-3.85-.94s5.84-1.05,5.86-6.35Z"/>
      <path class="cls-26" d="m125.95,26.1s.27,3.24-.95,4-5.15-1.61-5.15-1.61c0,0,3.49.53,6.1-2.39Z"/>
      <path class="cls-11" d="m83.36,2.23s-2.31,2.67-.45,5.67h1s1.83-2.7-.55-5.67Z"/>
      <path class="cls-2" d="m83.39,3.09s-2.05,3,0,4.22c2.02-1.14,0-4.22,0-4.22Z"/>
    </g>
  </g>
</svg>