<?xml version="1.0" encoding="UTF-8"?>
<svg id="Capa_2" data-name="Capa 2" xmlns="http://www.w3.org/2000/svg" viewBox="0 0 481.14 433.62">
  <defs>
    <style>
      .cls-1, .cls-2, .cls-3, .cls-4, .cls-5, .cls-6, .cls-7, .cls-8 {
        stroke-miterlimit: 10;
      }

      .cls-1, .cls-4 {
        stroke: #000;
      }

      .cls-2 {
        fill: none;
      }

      .cls-2, .cls-5, .cls-6, .cls-8 {
        stroke: #1d1d1b;
      }

      .cls-3, .cls-7 {
        stroke: #fff;
      }

      .cls-4, .cls-5, .cls-7 {
        fill: #fff;
      }

      .cls-6 {
        fill: #3f0b4c;
      }
    </style>
  </defs>
  <g id="Capa_20" data-name="Capa 20">
    <g>
      <path class="cls-5" d="m91.01,264.47c-.42,4.8-.62,9.72-.57,14.62-11.67,4.76-26.63,2.26-35.98-5.69,3.71,13.67,12.23,25.4,23.82,33.26C21.08,297.54-15.75,231.33,7.64,177.25c4.98,41.46,42.33,77.19,84.07,80.7-.28,2.16-.51,4.33-.7,6.52Z"/>
      <path class="cls-1" d="m180.51,154.38c-14.82,3.76-29.29,8.9-43.15,15.35,11.34-11.16,24.47-20.58,38.73-27.75,2.19,3.76,3.71,7.95,4.42,12.4Z"/>
      <path class="cls-1" d="m358.87,175.69c-6.27-3.33-12.68-6.38-19.21-9.16h0c-11.92-5.08-24.22-9.22-36.79-12.36-.01.06-.02.11-.03.17-13.1-3.23-26.37-5.43-39.84-6.5v6.84h-40.67v-6.86c-13.95,1.11-27.8,3.41-41.35,6.86-.73-4.62-2.34-8.93-4.66-12.82,59.37-30.96,138.48-16.19,182.55,33.83Z"/>
      <path class="cls-1" d="m396.63,251.36c-.39-.23-.78-.46-1.17-.68.35-.03.69-.06,1.03-.09.05.26.1.51.14.77Z"/>
      <path class="cls-5" d="m475.35,282.25c-16.07-1.41-32.31,1.32-46.83,7.8,3.34-5.11,5.86-10.74,7.48-16.64-9.79,8.22-24.93,10.5-36.78,5.35-.05-9.64-1-19.01-2.73-28.17,28.09-2.8,59.73,9.54,78.86,31.66Z"/>
      <path class="cls-6" d="m350.26,110.31c-.06.02-.13.04-.2.05.01-.12.01-.24.01-.35.06.1.13.19.19.29h0Z"/>
      <path class="cls-3" d="m477.01,281.53c-.16.54-.3,1.08-.46,1.62-.16-.02-.31-.04-.46-.06-19.36-22.92-51.79-35.59-80.63-32.41-80.59-49.64-179.5-38.64-260.81,1.93-53.96,21.96-122.01-18.13-126.84-76.43,15.67,4.17,31.98,4.2,47.37.39,4.58,12.64,10.92,24.7,18.58,35.61,30.09-27.64,67.11-47.78,106.75-57.8-.71-4.45-2.23-8.64-4.42-12.4.07-.04.15-.08.23-.12,2.32,3.89,3.93,8.2,4.66,12.82,13.55-3.45,27.4-5.75,41.35-6.86v6.86h40.67v-6.84c13.47,1.07,26.74,3.27,39.84,6.5.01-.06.02-.11.03-.17,12.57,3.14,24.87,7.28,36.79,12.35h0c6.53,2.79,12.94,5.84,19.21,9.17,8.05,4.12,15.39,9.52,23.56,13.45,10.65,5.4,21.83,9.46,33.57,12.24,6.82-11.71,12.1-24.24,15.63-37.41,31.54,30.3,59.14,72.1,45.38,117.56Z"/>
      <path class="cls-1" d="m431.63,163.97c-3.53,13.17-8.81,25.7-15.63,37.41-11.74-2.78-22.92-6.84-33.57-12.24-8.17-3.93-15.51-9.33-23.56-13.45-6.27-3.33-12.68-6.38-19.21-9.16h0c-11.92-5.08-24.22-9.22-36.79-12.36-.01.06-.02.11-.03.17-13.1-3.23-26.37-5.43-39.84-6.5v6.84h-40.67v-6.86c-13.95,1.11-27.8,3.41-41.35,6.86-.73-4.62-2.34-8.93-4.66-12.82-.08.04-.16.08-.23.12,2.19,3.76,3.71,7.95,4.42,12.4-39.64,10.02-76.66,30.16-106.75,57.8-7.66-10.91-14-22.97-18.58-35.61,19.92-3.4,29.37-16.07,43.81-28.23,14.83-12.13,31.04-22.46,48.21-30.85-.21-.31-.52-.76-.73-1.08h-.01c-1.57-2.42-2.95-4.93-4.15-7.56C180.84,52.46,242.93,13.33,310.62,3.48c5.37-1.1,56.69-5.98,55.72-.24-13.09,26.99-24.02,55.36-27.85,85.42-11.64-13.62-24.73-25.97-39.03-36.81,14.3,12.05,27.23,25.68,38.51,40.62h0c1.95,2.58,3.82,5.2,5.68,7.84-.63,2.28-1.43,4.52-2.33,6.7,33.37,12.02,64.91,31.88,90.31,56.96Z"/>
      <path class="cls-2" d="m90.67,84.43c0,.1-.02.19-.03.29-.09-.1-.18-.19-.27-.29h.3Z"/>
      <path class="cls-2" d="m350.26,110.3h0c-.06.03-.13.05-.2.06.01-.12.01-.24.01-.35.06.1.13.19.19.29Z"/>
      <path class="cls-2" d="m310.13,138.52c-.52.23-1.05.45-1.59.66.25-.35.5-.7.77-1.04.27.12.55.25.82.38Z"/>
      <path class="cls-4" d="m344.65,96.16c-.28,1.4-.62,2.79-1,4.15-1.85-2.64-3.73-5.26-5.68-7.83h0c-11.28-14.95-24.21-28.58-38.51-40.63,14.3,10.84,27.39,23.19,39.03,36.81h0c2.1,2.47,4.16,4.96,6.16,7.5Z"/>
      <path class="cls-1" d="m354.18,109.06c-1.29.44-2.6.86-3.92,1.24-.06-.1-.13-.19-.19-.29.12-2.26.08-4.57-.07-6.82,1.42,1.94,2.82,3.88,4.18,5.87Z"/>
      <path class="cls-4" d="m102.9,189.2c-10.29,6.92-20.02,14.62-29.14,22.98-33.93-46.47-36.84-115.45-7.76-164.45-14.46,36.95-2.15,82.62,29.07,107.19.67.53,1.35,1.08,2.03,1.6-8.24,1.56-17.14.14-24.45-4.03-.78-.42-1.55-.9-2.3-1.41-1.34-.88-2.62-1.87-3.84-2.92-3.27,21.15,14.99,41.76,36.39,41.04Z"/>
      <path class="cls-2" d="m90.67,84.43c0,.1-.02.19-.03.29-.09-.1-.18-.19-.27-.29h.3Z"/>
      <path class="cls-3" d="m180.51,154.38c-27.62,7-54.01,18.87-77.61,34.82-21.4.72-39.66-19.89-36.39-41.04,1.21,1.05,2.51,2.05,3.84,2.92.75.5,1.52.99,2.3,1.41,7.31,4.17,16.21,5.59,24.45,4.03-.68-.52-1.36-1.06-2.03-1.6-31.68-25-45.08-73.55-27.27-110.27,4.17,14.97,12.11,28.84,22.84,40.07.31-3.78.99-7.47,1.99-11.02,4.69,20.13,20.91,31.77,40.13,36.66-.47-8.72,1.09-17.57,4.26-25.27.15,11.49,3.42,21.97,9.44,31.32h.01c6.65,10.24,16.34,18.24,27.81,22.76.27.38.54.76.78,1.15h.01c2.76,4.23,4.62,8.94,5.44,14.06Z"/>
      <path class="cls-2" d="m310.13,138.52c-.52.23-1.05.45-1.59.66.25-.35.5-.7.77-1.04.27.12.55.25.82.38Z"/>
      <path class="cls-4" d="m436.91,123.84c-.02,27.61-7.19,53.98-20.91,77.54-11.74-2.78-22.92-6.84-33.57-12.24,20.37-.93,36.81-20.16,33.88-40.98-7.91,7.09-19.71,10.49-30.58,8.37,32.62-24.24,45.91-70.97,31.12-108.75,12.77,22.44,20.06,48.4,20.06,76.06Z"/>
      <path class="cls-2" d="m310.13,138.52c-.52.23-1.05.45-1.59.66.25-.35.5-.7.77-1.04.27.12.55.25.82.38Z"/>
      <path class="cls-2" d="m310.13,138.52c-.52.23-1.05.45-1.59.66.25-.35.5-.7.77-1.04.27.12.55.25.82.38Z"/>
      <path class="cls-3" d="m385.73,156.53c10.88,2.12,22.67-1.28,30.58-8.37,2.93,20.82-13.53,40.1-33.91,40.97-8.15-3.94-15.49-9.32-23.53-13.44-6.27-3.33-12.68-6.38-19.21-9.16h0c-12.07-5.15-24.56-9.32-37.29-12.49.94-5.45,3.03-10.44,6.16-14.85.01,0,.01,0,.01,0,21.92-8.43,37.26-30.56,37.27-54.06,2.3,5.63,3.75,11.71,4.18,18.06h.01c.16,2.38.18,4.8.06,7.18.07-.01.14-.03.2-.05h0c19.14-4.9,35.28-16.58,39.93-36.62,1,3.55,1.69,7.24,2,11.02,10.82-11.34,18.9-25.38,23.06-40.92,17.15,38.45,4.34,87.62-29.52,112.74Z"/>
      <path class="cls-2" d="m392.45,84.43c-.09.09-.17.18-.26.28-.01-.09-.01-.18-.02-.28h.28Z"/>
      <path class="cls-2" d="m310.13,138.52c-.52.23-1.05.45-1.59.66.25-.35.5-.7.77-1.04.27.12.55.25.82.38Z"/>
      <path class="cls-7" d="m309.78,138.44c-3.57,4.64-5.93,10.02-6.94,15.9-13.1-3.23-26.37-5.43-39.84-6.5v6.84h-40.67v-6.86c-13.95,1.11-27.8,3.41-41.35,6.86-.82-5.12-2.68-9.83-5.44-14.06,14.65-7.44,30.53-12.45,46.79-14.83v-8.2h40.67v7.61c16.31,1.9,32.03,6.38,46.78,13.24Z"/>
      <rect class="cls-8" x="230.36" y="126.1" width="24.61" height="20.07"/>
      <path class="cls-3" d="m442.35,316.25c-.86.26-1.73.5-2.62.7-10.09,1.96-24.82,1.04-30.05-8.68,12.82-7.72,22.42-20.41,26.32-34.86-9.79,8.22-24.93,10.5-36.78,5.35-.05-9.36-.94-18.51-2.59-27.4-76.27-48.71-180.02-40.42-257.76-.42-14.82,6.23-31.05,8.73-47.16,7.01-.89,7-1.34,14.02-1.27,21.14-11.67,4.76-26.63,2.26-35.98-5.69,4.12,15.24,14.33,28.15,27.96,35.83-1.25,1.07-2.58,2.05-3.97,2.94h0c-8.76,5.68-20.29,7.25-30.33,4.08,9.44,24.39,35.35,40.15,61.68,36.8.1.2.21.39.33.59-8.76,8.24-23.09,11.62-34.96,7.77,9.76,27.12,41.73,44.09,70.49,35.67,52.63,48.04,146.51,48.05,199.13.01,28.28,8.31,60.55-8.11,70.51-35.68-11.88,3.85-26.22.46-34.99-7.79.11-.2.22-.39.33-.58,26.34,3.37,52.25-12.37,61.71-36.79Zm-262.01-.28c-63.56-5.46-34.46-97.81,20.54-66.36h.01c29.08,18.9,14.7,67.08-20.55,66.36Zm125.56-.51c-1.28.14-2.58.21-3.9.21-.77,0-1.54-.03-2.3-.08-.11,0-.21-.02-.32-.02-.48-.03-.95-.07-1.42-.12-2.97-.3-5.81-.97-8.47-1.98-13.92-5.1-23.85-18.46-23.85-34.15,0-20.08,16.28-36.36,36.36-36.36,17.67,0,32.39,12.61,35.67,29.32.11,0,.21.02.32.03,4.28,20.9-11.27,41.25-32.09,43.15Z"/>
      <circle class="cls-7" cx="180.55" cy="279.32" r="36.36"/>
      <circle class="cls-7" cx="302.26" cy="280.11" r="36.36"/>
    </g>
  </g>
</svg>