<?xml version="1.0" encoding="UTF-8"?>
<svg id="Capa_2" data-name="Capa 2" xmlns="http://www.w3.org/2000/svg" viewBox="0 0 257 205.44">
  <defs>
    <style>
      .cls-1, .cls-2 {
        stroke-miterlimit: 10;
        stroke-width: 2px;
      }

      .cls-1, .cls-3, .cls-4 {
        stroke: #fff;
      }

      .cls-2 {
        fill: #f2f2f2;
        stroke: #000;
      }

      .cls-3 {
        stroke-miterlimit: 10;
      }

      .cls-4 {
        stroke-miterlimit: 10;
      }
    </style>
  </defs>
  <g id="Capa_35" data-name="Capa 35">
    <g id="Capa_5" data-name="Capa 5">
      <g>
        <rect class="cls-1" x="1" y="1" width="255" height="171.73" rx="7.63" ry="7.63"/>
        <rect class="cls-1" x="56.11" y="11.22" width="188.46" height="152.23" rx="5.1" ry="5.1"/>
        <g>
          <circle class="cls-1" cx="26.83" cy="86.81" r="14.74"/>
          <circle class="cls-1" cx="26.95" cy="86.81" r="6.77"/>
        </g>
        <g>
          <path class="cls-1" d="m13.02,26.2h10.81v9.61h-10.81c-2.13,0-3.86-1.73-3.86-3.86v-1.88c0-2.13,1.73-3.86,3.86-3.86h0Z"/>
          <path class="cls-1" d="m40.63,35.81h-10.81v-9.61h10.81c2.13,0,3.86,1.73,3.86,3.86v1.88c0,2.13-1.73,3.86-3.86,3.86h0Z"/>
        </g>
        <g>
          <path class="cls-1" d="m13.15,49.13h10.81v9.61h-10.81c-2.13,0-3.86-1.73-3.86-3.86v-1.88c0-2.13,1.73-3.86,3.86-3.86h0Z"/>
          <path class="cls-1" d="m40.76,58.74h-10.81v-9.61h10.81c2.13,0,3.86,1.73,3.86,3.86v1.88c0,2.13-1.73,3.86-3.86,3.86h0Z"/>
        </g>
        <g>
          <path class="cls-1" d="m12.96,114.87h10.81v9.61h-10.81c-2.13,0-3.86-1.73-3.86-3.86v-1.88c0-2.13,1.73-3.86,3.86-3.86h0Z"/>
          <path class="cls-1" d="m40.57,124.48h-10.81v-9.61h10.81c2.13,0,3.86,1.73,3.86,3.86v1.88c0,2.13-1.73,3.86-3.86,3.86h0Z"/>
        </g>
        <g>
          <path class="cls-1" d="m13.08,137.79h10.81v9.61h-10.81c-2.13,0-3.86-1.73-3.86-3.86v-1.88c0-2.13,1.73-3.86,3.86-3.86h0Z"/>
          <path class="cls-1" d="m40.7,147.41h-10.81v-9.61h10.81c2.13,0,3.86,1.73,3.86,3.86v1.88c0,2.13-1.73,3.86-3.86,3.86h0Z"/>
        </g>
        <path class="cls-2" d="m243.4,93.58s-11.01,17.47-27.48,17.45c-16.47-.02-72.77-65.86-97.67-79.27-24.9-13.41-56.56,63.2-56.56,63.2l.71,49.73,2.16,5.91c3.03,6.45,3.96,5.28,11.01,4.2l17.36,2.16,149.4-3.14,1.07-60.25"/>
        <path class="cls-1" d="m67.83,154.96S196.53,31.88,211.85,49.75l31.55,32.93v67.85s.07,10.66-7.59,8.73H68.81l-5.35.23,4.37-4.54h0Z"/>
        <g>
          <path class="cls-1" d="m88.76,186.53l-15.51,7.29c-2.19,1.42-1.81,4.73.65,5.62l15.9,4.18-1.03-17.08h0Z"/>
          <path class="cls-1" d="m93.73,185.4l1.5,19.02,93.39-2.74c3.96-.12,7.06-3.46,6.89-7.42h0c-.17-3.74-3.2-6.71-6.94-6.79l-94.85-2.08h0Z"/>
          <g>
            <path class="cls-4" d="m106.27,192.5l5.92-.08.07,5.25-5.92.08c-.89.01-1.62-.7-1.63-1.59l-.03-2.03c-.01-.89.7-1.62,1.59-1.63h0Z"/>
            <path class="cls-3" d="m123.55,197.58l-9.67.13-.07-5.25,9.67-.13c.89-.01,1.62.7,1.63,1.59l.03,2.03c.01.89-.7,1.62-1.59,1.63h0Z"/>
          </g>
        </g>
      </g>
    </g>
  </g>
</svg>